<svg xmlns="http://www.w3.org/2000/svg" width="56.121" height="56.11" viewBox="0 0 56.121 56.11">
  <g id="Group_161642" data-name="Group 161642" transform="translate(-24 -24.032)">
    <path id="Path_3229" data-name="Path 3229" d="M328.461,349.194c.6-1.862,1.149-3.555,1.7-5.241q1.828-5.615,3.66-11.227c.358-1.107.16-1.4-1.027-1.414-2.374-.022-4.748-.006-7.122-.013-.307,0-.614-.026-1.04-.045.358-1.107.659-2.089,1-3.059.048-.138.32-.25.5-.275a9.306,9.306,0,0,1,1.2-.051q16.562,0,33.124,0h1.174c-.2-.4-.307-.688-.467-.947-4.111-6.722-10-10.785-17.866-11.809a24.139,24.139,0,0,0-15.313,44.76c.733.426.88.813.531,1.558-.378.809-.646,1.67-1.043,2.726-1.545-1.014-3.059-1.859-4.4-2.918a27.619,27.619,0,0,1-10.545-17.862,28.067,28.067,0,0,1,54.212-13.6c.627,1.773.534,1.513-1.088,1.513q-12.161.014-24.322.016c-1.667,0-1.869.141-2.387,1.741q-2.486,7.626-4.946,15.255c-.208.649-.48.953-1.219.918C331.4,349.149,330.013,349.194,328.461,349.194Z" transform="translate(-288.179 -287)" fill="#265a5a"/>
    <path id="Path_3230" data-name="Path 3230" d="M383.129,390.23c-.39,1.216-.739,2.3-1.088,3.375-.09.278-.192.553-.272.835-.262.931-.045,1.222.928,1.225,1.414.006,2.828.01,4.239,0a2.281,2.281,0,0,0,2.368-1.657c.371-1.024.7-2.067,1-3.113.31-1.062-.1-1.667-1.206-1.718-1.065-.048-2.134-.016-3.2-.019h-7.605c.365-1.129.675-2.153,1.043-3.158.051-.141.394-.243.6-.246q6.4-.019,12.8,0a5.224,5.224,0,0,1,1.4.272,2.422,2.422,0,0,1,1.894,3.167,61.74,61.74,0,0,1-2.057,6.29c-1,2.544-3.18,3.475-5.746,3.567-2.156.077-4.319.022-6.479.022-1.219,0-1.549.224-1.945,1.353q-1.973,5.61-3.942,11.217c-.112.32-.186.65-.282.982,14.282,2.649,30.494-10,27.416-28.481,1.2,0,2.38-.026,3.558.032.147.006.371.432.4.681a28.1,28.1,0,0,1-36.951,30.449c-.582-.2-.733-.416-.518-1.024q4.089-11.59,8.117-23.2a1.076,1.076,0,0,1,1.245-.88C380.214,390.272,381.571,390.23,383.129,390.23Z" transform="translate(-327.092 -336.72)" fill="#265a5a"/>
  </g>
</svg>
